# Blender 4.3.2
# www.blender.org
mtllib gizmos.mtl
o 00_gizmo_light_directional
v -0.125000 -0.125000 -0.000000 0.4980 0.4980 0.4980
v 0.125000 -0.125000 -0.000000 0.4980 0.4980 0.4980
v -0.125000 0.125000 0.000000 0.4980 0.4980 0.4980
v 0.125000 0.125000 0.000000 0.4980 0.4980 0.4980
vn -0.0000 -0.0000 1.0000
vt 0.000000 0.000000
vt 1.000000 0.000000
vt 1.000000 1.000000
vt 0.000000 1.000000
s 0
usemtl gizmo_light_directional
f 1/1/1 2/2/1 4/3/1 3/4/1
o 01_gizmo_light_point
v -0.062500 -0.062500 -0.000000 0.4980 0.4980 0.4980
v 0.062500 -0.062500 -0.000000 0.4980 0.4980 0.4980
v -0.062500 0.062500 0.000000 0.4980 0.4980 0.4980
v 0.062500 0.062500 0.000000 0.4980 0.4980 0.4980
vn -0.0000 -0.0000 1.0000
vt 0.000000 0.000000
vt 1.000000 0.000000
vt 1.000000 1.000000
vt 0.000000 1.000000
s 0
usemtl gizmo_light_point
f 5/5/2 6/6/2 8/7/2 7/8/2
